<mxfile host="app.diagrams.net" modified="2024-06-03T09:47:34.915Z" agent="Mozilla/5.0 (X11; Linux x86_64; rv:120.0) Gecko/20100101 Firefox/120.0" etag="4BkKyghu3Ff4cIIPWilk" version="24.4.13" type="device">
  <diagram name="Page-1" id="10yxt3X_zslI6xzK4Py6">
    <mxGraphModel dx="244" dy="118" grid="1" gridSize="10" guides="1" tooltips="1" connect="1" arrows="1" fold="1" page="1" pageScale="1" pageWidth="827" pageHeight="1169" math="0" shadow="0">
      <root>
        <mxCell id="0" />
        <mxCell id="1" parent="0" />
        <mxCell id="GXt7LjNAbAXvlwu4eHmQ-1" value="" style="group" vertex="1" connectable="0" parent="1">
          <mxGeometry x="250" y="390" width="222.5" height="120" as="geometry" />
        </mxCell>
        <mxCell id="GXt7LjNAbAXvlwu4eHmQ-2" value="" style="group" vertex="1" connectable="0" parent="GXt7LjNAbAXvlwu4eHmQ-1">
          <mxGeometry width="222.5" height="120" as="geometry" />
        </mxCell>
        <mxCell id="GXt7LjNAbAXvlwu4eHmQ-3" value="" style="group;rotation=-180;" vertex="1" connectable="0" parent="GXt7LjNAbAXvlwu4eHmQ-2">
          <mxGeometry x="150" width="72.5" height="120" as="geometry" />
        </mxCell>
        <mxCell id="GXt7LjNAbAXvlwu4eHmQ-4" value="" style="endArrow=none;html=1;rounded=0;" edge="1" parent="GXt7LjNAbAXvlwu4eHmQ-3">
          <mxGeometry width="50" height="50" relative="1" as="geometry">
            <mxPoint x="50" as="sourcePoint" />
            <mxPoint x="50" y="120" as="targetPoint" />
          </mxGeometry>
        </mxCell>
        <mxCell id="GXt7LjNAbAXvlwu4eHmQ-5" value="" style="endArrow=none;html=1;rounded=0;" edge="1" parent="GXt7LjNAbAXvlwu4eHmQ-3">
          <mxGeometry width="50" height="50" relative="1" as="geometry">
            <mxPoint x="10" y="120" as="sourcePoint" />
            <mxPoint x="50" y="120" as="targetPoint" />
          </mxGeometry>
        </mxCell>
        <mxCell id="GXt7LjNAbAXvlwu4eHmQ-6" value="" style="endArrow=none;html=1;rounded=0;" edge="1" parent="GXt7LjNAbAXvlwu4eHmQ-3">
          <mxGeometry width="50" height="50" relative="1" as="geometry">
            <mxPoint x="10" as="sourcePoint" />
            <mxPoint x="50" as="targetPoint" />
          </mxGeometry>
        </mxCell>
        <mxCell id="GXt7LjNAbAXvlwu4eHmQ-7" value="" style="endArrow=none;html=1;rounded=0;" edge="1" parent="GXt7LjNAbAXvlwu4eHmQ-3">
          <mxGeometry width="50" height="50" relative="1" as="geometry">
            <mxPoint x="10" y="10" as="sourcePoint" />
            <mxPoint x="10" as="targetPoint" />
          </mxGeometry>
        </mxCell>
        <mxCell id="GXt7LjNAbAXvlwu4eHmQ-8" value="" style="endArrow=none;html=1;rounded=0;" edge="1" parent="GXt7LjNAbAXvlwu4eHmQ-3">
          <mxGeometry width="50" height="50" relative="1" as="geometry">
            <mxPoint x="10" y="50" as="sourcePoint" />
            <mxPoint x="10" y="30" as="targetPoint" />
          </mxGeometry>
        </mxCell>
        <mxCell id="GXt7LjNAbAXvlwu4eHmQ-9" value="" style="endArrow=none;html=1;rounded=0;" edge="1" parent="GXt7LjNAbAXvlwu4eHmQ-3">
          <mxGeometry width="50" height="50" relative="1" as="geometry">
            <mxPoint y="30" as="sourcePoint" />
            <mxPoint y="10" as="targetPoint" />
          </mxGeometry>
        </mxCell>
        <mxCell id="GXt7LjNAbAXvlwu4eHmQ-10" value="" style="endArrow=none;html=1;rounded=0;" edge="1" parent="GXt7LjNAbAXvlwu4eHmQ-3">
          <mxGeometry width="50" height="50" relative="1" as="geometry">
            <mxPoint x="10" y="90" as="sourcePoint" />
            <mxPoint x="10" y="70" as="targetPoint" />
          </mxGeometry>
        </mxCell>
        <mxCell id="GXt7LjNAbAXvlwu4eHmQ-11" value="" style="endArrow=none;html=1;rounded=0;" edge="1" parent="GXt7LjNAbAXvlwu4eHmQ-3">
          <mxGeometry width="50" height="50" relative="1" as="geometry">
            <mxPoint y="10" as="sourcePoint" />
            <mxPoint x="10" y="10" as="targetPoint" />
          </mxGeometry>
        </mxCell>
        <mxCell id="GXt7LjNAbAXvlwu4eHmQ-12" value="" style="endArrow=none;html=1;rounded=0;" edge="1" parent="GXt7LjNAbAXvlwu4eHmQ-3">
          <mxGeometry width="50" height="50" relative="1" as="geometry">
            <mxPoint x="10" y="120" as="sourcePoint" />
            <mxPoint x="10" y="110" as="targetPoint" />
          </mxGeometry>
        </mxCell>
        <mxCell id="GXt7LjNAbAXvlwu4eHmQ-13" value="" style="endArrow=none;html=1;rounded=0;" edge="1" parent="GXt7LjNAbAXvlwu4eHmQ-3">
          <mxGeometry width="50" height="50" relative="1" as="geometry">
            <mxPoint y="70" as="sourcePoint" />
            <mxPoint y="50" as="targetPoint" />
          </mxGeometry>
        </mxCell>
        <mxCell id="GXt7LjNAbAXvlwu4eHmQ-14" value="" style="endArrow=none;html=1;rounded=0;" edge="1" parent="GXt7LjNAbAXvlwu4eHmQ-3">
          <mxGeometry width="50" height="50" relative="1" as="geometry">
            <mxPoint y="110" as="sourcePoint" />
            <mxPoint y="90" as="targetPoint" />
          </mxGeometry>
        </mxCell>
        <mxCell id="GXt7LjNAbAXvlwu4eHmQ-15" value="" style="endArrow=none;html=1;rounded=0;" edge="1" parent="GXt7LjNAbAXvlwu4eHmQ-3">
          <mxGeometry width="50" height="50" relative="1" as="geometry">
            <mxPoint y="50" as="sourcePoint" />
            <mxPoint x="10" y="50" as="targetPoint" />
          </mxGeometry>
        </mxCell>
        <mxCell id="GXt7LjNAbAXvlwu4eHmQ-16" value="" style="endArrow=none;html=1;rounded=0;" edge="1" parent="GXt7LjNAbAXvlwu4eHmQ-3">
          <mxGeometry width="50" height="50" relative="1" as="geometry">
            <mxPoint y="30" as="sourcePoint" />
            <mxPoint x="10" y="30" as="targetPoint" />
          </mxGeometry>
        </mxCell>
        <mxCell id="GXt7LjNAbAXvlwu4eHmQ-17" value="" style="endArrow=none;html=1;rounded=0;" edge="1" parent="GXt7LjNAbAXvlwu4eHmQ-3">
          <mxGeometry width="50" height="50" relative="1" as="geometry">
            <mxPoint y="70" as="sourcePoint" />
            <mxPoint x="10" y="70" as="targetPoint" />
          </mxGeometry>
        </mxCell>
        <mxCell id="GXt7LjNAbAXvlwu4eHmQ-18" value="" style="endArrow=none;html=1;rounded=0;" edge="1" parent="GXt7LjNAbAXvlwu4eHmQ-3">
          <mxGeometry width="50" height="50" relative="1" as="geometry">
            <mxPoint y="90" as="sourcePoint" />
            <mxPoint x="10" y="90" as="targetPoint" />
          </mxGeometry>
        </mxCell>
        <mxCell id="GXt7LjNAbAXvlwu4eHmQ-19" value="" style="endArrow=none;html=1;rounded=0;" edge="1" parent="GXt7LjNAbAXvlwu4eHmQ-3">
          <mxGeometry width="50" height="50" relative="1" as="geometry">
            <mxPoint y="110" as="sourcePoint" />
            <mxPoint x="10" y="110" as="targetPoint" />
          </mxGeometry>
        </mxCell>
        <mxCell id="GXt7LjNAbAXvlwu4eHmQ-20" value="&quot;How&quot; support" style="text;html=1;strokeColor=none;fillColor=none;align=center;verticalAlign=middle;whiteSpace=wrap;rounded=0;shadow=0;glass=0;sketch=0;rotation=90;" vertex="1" parent="GXt7LjNAbAXvlwu4eHmQ-3">
          <mxGeometry x="-12.5" y="44.5" width="85" height="30" as="geometry" />
        </mxCell>
        <mxCell id="GXt7LjNAbAXvlwu4eHmQ-21" value="" style="endArrow=none;html=1;rounded=0;" edge="1" parent="GXt7LjNAbAXvlwu4eHmQ-2">
          <mxGeometry width="50" height="50" relative="1" as="geometry">
            <mxPoint x="40" y="120" as="sourcePoint" />
            <mxPoint x="160" y="120" as="targetPoint" />
          </mxGeometry>
        </mxCell>
        <mxCell id="GXt7LjNAbAXvlwu4eHmQ-22" value="" style="endArrow=none;html=1;rounded=0;" edge="1" parent="GXt7LjNAbAXvlwu4eHmQ-2">
          <mxGeometry width="50" height="50" relative="1" as="geometry">
            <mxPoint x="40" y="80" as="sourcePoint" />
            <mxPoint x="160" y="80" as="targetPoint" />
          </mxGeometry>
        </mxCell>
        <mxCell id="GXt7LjNAbAXvlwu4eHmQ-23" value="" style="endArrow=none;html=1;rounded=0;" edge="1" parent="GXt7LjNAbAXvlwu4eHmQ-2">
          <mxGeometry width="50" height="50" relative="1" as="geometry">
            <mxPoint x="40" y="40" as="sourcePoint" />
            <mxPoint x="160" y="40" as="targetPoint" />
          </mxGeometry>
        </mxCell>
        <mxCell id="GXt7LjNAbAXvlwu4eHmQ-24" value="" style="endArrow=none;html=1;rounded=0;" edge="1" parent="GXt7LjNAbAXvlwu4eHmQ-2">
          <mxGeometry width="50" height="50" relative="1" as="geometry">
            <mxPoint x="40" as="sourcePoint" />
            <mxPoint x="160" as="targetPoint" />
          </mxGeometry>
        </mxCell>
        <mxCell id="GXt7LjNAbAXvlwu4eHmQ-25" value="Software" style="text;html=1;strokeColor=none;fillColor=none;align=center;verticalAlign=middle;whiteSpace=wrap;rounded=0;shadow=0;glass=0;sketch=0;" vertex="1" parent="GXt7LjNAbAXvlwu4eHmQ-2">
          <mxGeometry x="70" y="5" width="60" height="30" as="geometry" />
        </mxCell>
        <mxCell id="GXt7LjNAbAXvlwu4eHmQ-26" value="Documentation" style="text;html=1;strokeColor=none;fillColor=none;align=center;verticalAlign=middle;whiteSpace=wrap;rounded=0;shadow=0;glass=0;sketch=0;" vertex="1" parent="GXt7LjNAbAXvlwu4eHmQ-2">
          <mxGeometry x="70" y="45" width="60" height="30" as="geometry" />
        </mxCell>
        <mxCell id="GXt7LjNAbAXvlwu4eHmQ-27" value="Culture and collaboration" style="text;html=1;strokeColor=none;fillColor=none;align=center;verticalAlign=middle;whiteSpace=wrap;rounded=0;shadow=0;glass=0;sketch=0;" vertex="1" parent="GXt7LjNAbAXvlwu4eHmQ-2">
          <mxGeometry x="50" y="85" width="100" height="30" as="geometry" />
        </mxCell>
        <mxCell id="GXt7LjNAbAXvlwu4eHmQ-28" value="" style="group" vertex="1" connectable="0" parent="GXt7LjNAbAXvlwu4eHmQ-1">
          <mxGeometry width="66.25" height="120" as="geometry" />
        </mxCell>
        <mxCell id="GXt7LjNAbAXvlwu4eHmQ-29" value="" style="endArrow=none;html=1;rounded=0;" edge="1" parent="GXt7LjNAbAXvlwu4eHmQ-28">
          <mxGeometry width="50" height="50" relative="1" as="geometry">
            <mxPoint y="120" as="sourcePoint" />
            <mxPoint as="targetPoint" />
          </mxGeometry>
        </mxCell>
        <mxCell id="GXt7LjNAbAXvlwu4eHmQ-30" value="" style="endArrow=none;html=1;rounded=0;" edge="1" parent="GXt7LjNAbAXvlwu4eHmQ-28">
          <mxGeometry width="50" height="50" relative="1" as="geometry">
            <mxPoint x="40" as="sourcePoint" />
            <mxPoint as="targetPoint" />
          </mxGeometry>
        </mxCell>
        <mxCell id="GXt7LjNAbAXvlwu4eHmQ-31" value="" style="endArrow=none;html=1;rounded=0;" edge="1" parent="GXt7LjNAbAXvlwu4eHmQ-28">
          <mxGeometry width="50" height="50" relative="1" as="geometry">
            <mxPoint x="40" y="120" as="sourcePoint" />
            <mxPoint y="120" as="targetPoint" />
          </mxGeometry>
        </mxCell>
        <mxCell id="GXt7LjNAbAXvlwu4eHmQ-32" value="" style="endArrow=none;html=1;rounded=0;" edge="1" parent="GXt7LjNAbAXvlwu4eHmQ-28">
          <mxGeometry width="50" height="50" relative="1" as="geometry">
            <mxPoint x="40" y="110" as="sourcePoint" />
            <mxPoint x="40" y="120" as="targetPoint" />
          </mxGeometry>
        </mxCell>
        <mxCell id="GXt7LjNAbAXvlwu4eHmQ-33" value="" style="endArrow=none;html=1;rounded=0;" edge="1" parent="GXt7LjNAbAXvlwu4eHmQ-28">
          <mxGeometry width="50" height="50" relative="1" as="geometry">
            <mxPoint x="40" y="70" as="sourcePoint" />
            <mxPoint x="40" y="90" as="targetPoint" />
          </mxGeometry>
        </mxCell>
        <mxCell id="GXt7LjNAbAXvlwu4eHmQ-34" value="" style="endArrow=none;html=1;rounded=0;" edge="1" parent="GXt7LjNAbAXvlwu4eHmQ-28">
          <mxGeometry width="50" height="50" relative="1" as="geometry">
            <mxPoint x="50" y="90" as="sourcePoint" />
            <mxPoint x="50" y="110" as="targetPoint" />
          </mxGeometry>
        </mxCell>
        <mxCell id="GXt7LjNAbAXvlwu4eHmQ-35" value="" style="endArrow=none;html=1;rounded=0;" edge="1" parent="GXt7LjNAbAXvlwu4eHmQ-28">
          <mxGeometry width="50" height="50" relative="1" as="geometry">
            <mxPoint x="40" y="30" as="sourcePoint" />
            <mxPoint x="40" y="50" as="targetPoint" />
          </mxGeometry>
        </mxCell>
        <mxCell id="GXt7LjNAbAXvlwu4eHmQ-36" value="" style="endArrow=none;html=1;rounded=0;" edge="1" parent="GXt7LjNAbAXvlwu4eHmQ-28">
          <mxGeometry width="50" height="50" relative="1" as="geometry">
            <mxPoint x="50" y="110" as="sourcePoint" />
            <mxPoint x="40" y="110" as="targetPoint" />
          </mxGeometry>
        </mxCell>
        <mxCell id="GXt7LjNAbAXvlwu4eHmQ-37" value="" style="endArrow=none;html=1;rounded=0;" edge="1" parent="GXt7LjNAbAXvlwu4eHmQ-28">
          <mxGeometry width="50" height="50" relative="1" as="geometry">
            <mxPoint x="40" as="sourcePoint" />
            <mxPoint x="40" y="10" as="targetPoint" />
          </mxGeometry>
        </mxCell>
        <mxCell id="GXt7LjNAbAXvlwu4eHmQ-38" value="" style="endArrow=none;html=1;rounded=0;" edge="1" parent="GXt7LjNAbAXvlwu4eHmQ-28">
          <mxGeometry width="50" height="50" relative="1" as="geometry">
            <mxPoint x="50" y="50" as="sourcePoint" />
            <mxPoint x="50" y="70" as="targetPoint" />
          </mxGeometry>
        </mxCell>
        <mxCell id="GXt7LjNAbAXvlwu4eHmQ-39" value="" style="endArrow=none;html=1;rounded=0;" edge="1" parent="GXt7LjNAbAXvlwu4eHmQ-28">
          <mxGeometry width="50" height="50" relative="1" as="geometry">
            <mxPoint x="50" y="10" as="sourcePoint" />
            <mxPoint x="50" y="30" as="targetPoint" />
          </mxGeometry>
        </mxCell>
        <mxCell id="GXt7LjNAbAXvlwu4eHmQ-40" value="" style="endArrow=none;html=1;rounded=0;" edge="1" parent="GXt7LjNAbAXvlwu4eHmQ-28">
          <mxGeometry width="50" height="50" relative="1" as="geometry">
            <mxPoint x="50" y="70" as="sourcePoint" />
            <mxPoint x="40" y="70" as="targetPoint" />
          </mxGeometry>
        </mxCell>
        <mxCell id="GXt7LjNAbAXvlwu4eHmQ-41" value="" style="endArrow=none;html=1;rounded=0;" edge="1" parent="GXt7LjNAbAXvlwu4eHmQ-28">
          <mxGeometry width="50" height="50" relative="1" as="geometry">
            <mxPoint x="50" y="90" as="sourcePoint" />
            <mxPoint x="40" y="90" as="targetPoint" />
          </mxGeometry>
        </mxCell>
        <mxCell id="GXt7LjNAbAXvlwu4eHmQ-42" value="" style="endArrow=none;html=1;rounded=0;" edge="1" parent="GXt7LjNAbAXvlwu4eHmQ-28">
          <mxGeometry width="50" height="50" relative="1" as="geometry">
            <mxPoint x="50" y="50" as="sourcePoint" />
            <mxPoint x="40" y="50" as="targetPoint" />
          </mxGeometry>
        </mxCell>
        <mxCell id="GXt7LjNAbAXvlwu4eHmQ-43" value="" style="endArrow=none;html=1;rounded=0;" edge="1" parent="GXt7LjNAbAXvlwu4eHmQ-28">
          <mxGeometry width="50" height="50" relative="1" as="geometry">
            <mxPoint x="50.000000000000114" y="30" as="sourcePoint" />
            <mxPoint x="40" y="30" as="targetPoint" />
          </mxGeometry>
        </mxCell>
        <mxCell id="GXt7LjNAbAXvlwu4eHmQ-44" value="" style="endArrow=none;html=1;rounded=0;" edge="1" parent="GXt7LjNAbAXvlwu4eHmQ-28">
          <mxGeometry width="50" height="50" relative="1" as="geometry">
            <mxPoint x="50.000000000000114" y="10" as="sourcePoint" />
            <mxPoint x="40.000000000000114" y="10" as="targetPoint" />
          </mxGeometry>
        </mxCell>
        <mxCell id="GXt7LjNAbAXvlwu4eHmQ-45" value="&quot;Why&quot; support" style="text;html=1;strokeColor=none;fillColor=none;align=center;verticalAlign=middle;whiteSpace=wrap;rounded=0;shadow=0;glass=0;sketch=0;rotation=-90;" vertex="1" parent="GXt7LjNAbAXvlwu4eHmQ-28">
          <mxGeometry x="-20" y="45" width="86.25" height="30" as="geometry" />
        </mxCell>
      </root>
    </mxGraphModel>
  </diagram>
</mxfile>
